<?xml version="1.0" encoding="utf-8"?>
<?xml-stylesheet type="text/xsl" href="rss1.xsl"?>
<rss version="2.0" xmlns:atom="http://www.w3.org/2005/Atom" xmlns:content="http://purl.org/rss/1.0/modules/content/" xmlns:dc="http://purl.org/dc/elements/1.1/" xmlns:media="http://search.yahoo.com/mrss/">
<channel>
 <title>Getty</title>
 <link>http://www.gettyimg.com/</link>
 <atom:link href="http://www.gettyimg.com/" rel="self" type="application/rss+xml" />

 
                <item>
                <title><![CDATA[【Requests】Filled - [REQ AUD] Kygo &amp; Hayla _ without you]]></title>
                <link><![CDATA[https://sharemania.us/threads/req-aud-kygo-hayla-_-without-you.245844/]]></link>
                <description><![CDATA[<article>
<blockquote class="messageText SelectQuoteContainer ugc baseHtml">
I'd appreciate it
<div class="messageTextEndMarker">&nbsp;</div>
</blockquote>
</article>]]></description>
                <author><![CDATA[Charchian]]></author>
                </item>

                
                <item>
                <title><![CDATA[【Requests】[REQ AUD] - Seven Lions - Worlds Apart EP FLAC QOBUZ]]></title>
                <link><![CDATA[https://sharemania.us/threads/seven-lions-worlds-apart-ep-flac-qobuz.245842/]]></link>
                <description><![CDATA[<article>
<blockquote class="messageText SelectQuoteContainer ugc baseHtml">
Hello can i request the album WORLDS APART EP from SEVEN LIONS, QOBUZ RIP, thank you -- <a href="https://www.qobuz.com/ie-en/album/worlds-apart-seven-lions/0060253779128" target="_blank" class="externalLink" rel="nofollow">https://www.qobuz.com/ie-en/album/worlds-apart-seven-lions/0060253779128</a>
<div class="messageTextEndMarker">&nbsp;</div>
</blockquote>
</article>]]></description>
                <author><![CDATA[jcroze]]></author>
                </item>

                
                <item>
                <title><![CDATA[【Requests】[REQ AUD] - Red Moon - Lil Uzi Vert]]></title>
                <link><![CDATA[https://sharemania.us/threads/red-moon-lil-uzi-vert.245843/]]></link>
                <description><![CDATA[<article>
<blockquote class="messageText SelectQuoteContainer ugc baseHtml">
Can I please get the flac? <br>
<a href="https://www.qobuz.com/us-en/album/red-moon-lil-uzi-vert/fjkvcone955pa" target="_blank" class="externalLink" rel="nofollow">https://www.qobuz.com/us-en/album/red-moon-lil-uzi-vert/fjkvcone955pa</a><br>
Thanks a lot!
<div class="messageTextEndMarker">&nbsp;</div>
</blockquote>
</article>]]></description>
                <author><![CDATA[Jester010101]]></author>
                </item>

                
                <item>
                <title><![CDATA[【HD Live Performances】FEED - Dick Clark's New Year's Rockin' Eve (2023) - JAX REHEARSAL BACKHAUL 720p 30Mbps MPA2.0 H.264-TrollHD]]></title>
                <link><![CDATA[https://sharemania.us/threads/dick-clarks-new-years-rockin-eve-2023-jax-rehearsal-backhaul-720p-30mbps-mpa2-0-h-264-trollhd.245845/]]></link>
                <description><![CDATA[<article>
<blockquote class="messageText SelectQuoteContainer ugc baseHtml">
<div style="padding-left: 30px"><div style="padding-left: 30px"><div style="padding-left: 30px"><div style="padding-left: 30px"><b><span style="font-size: 22px"><span style="color: rgb(255, 77, 77)"><span style="font-size: 22px">Dick Clark's New Year's Rockin' Eve (2023</span>)</span></span></b>​</div></div></div></div><b><span style="color: rgb(255, 77, 77)"><span style="font-size: 22px">JAX REHEARSAL BACKHAUL 720p 30Mbps MPA2.0 H.264-TrollHD</span></span></b><br>
<br>
<img src="https://i.postimg.cc/0Q3VZxrB/Dick-Clark-s-New-Year-s-Rockin-Eve-2023-JAX-REHEARSAL-BACKHAUL-720p-30-Mbps-MPA2-0-H-264-Troll-HD.png" class="bbCodeImage LbImage" alt="[​IMG]" data-url="https://i.postimg.cc/0Q3VZxrB/Dick-Clark-s-New-Year-s-Rockin-Eve-2023-JAX-REHEARSAL-BACKHAUL-720p-30-Mbps-MPA2-0-H-264-Troll-HD.png" style=""><br>
<br>
<div class="bbCodeBlock bbCodeCode">
<div class="type">Code:</div>
<pre>General
ID                             : 1 (0x1)
Complete name                  : Y:\FTA Records\Dick Clark's New Year's Rockin' Eve (2023) - JAX REHEARSAL BACKHAUL 720p 30Mbps MPA2.0 H.264-TrollHD.ts
Format                         : MPEG-TS
File size                      : 3.40 GiB
Duration                       : 15 min 59 s
Overall bit rate mode          : Variable
Overall bit rate               : 30.4 Mb/s
Maximum Overall bit rate       : 35.5 Mb/s

Video
ID                             : 4113 (0x1011)
Menu ID                        : 1 (0x1)
Format                         : AVC
Format/Info                    : Advanced Video Codec
Format profile                 : High@L4.1
Format settings                : 2 Ref Frames
Format settings, CABAC         : No
Format settings, Reference fra : 2 frames
Format settings, GOP           : M=3, N=30
Codec ID                       : 27
Duration                       : 15 min 59 s
Bit rate                       : 28.7 Mb/s
Width                          : 1 280 pixels
Height                         : 720 pixels
Display aspect ratio           : 16:9
Frame rate                     : 59.940 (60000/1001) FPS
Standard                       : Component
Color space                    : YUV
Chroma subsampling             : 4:2:0
Bit depth                      : 8 bits
Scan type                      : Progressive
Bits/(Pixel*Frame)             : 0.520
Stream size                    : 3.21 GiB (94%)
Color range                    : Limited
Color primaries                : BT.709
Transfer characteristics       : BT.709
Matrix coefficients            : BT.709

Audio
ID                             : 4352 (0x1100)
Menu ID                        : 1 (0x1)
Format                         : MPEG Audio
Format version                 : Version 1
Format profile                 : Layer 2
Codec ID                       : 4
Duration                       : 15 min 59 s
Bit rate mode                  : Constant
Bit rate                       : 192 kb/s
Channel(s)                     : 2 channels
Sampling rate                  : 48.0 kHz
Frame rate                     : 41.667 FPS (1152 SPF)
Compression mode               : Lossy
Delay relative to video        : 7 ms
Stream size                    : 22.0 MiB (1%)
Language                       : English

</pre>
</div>
<div class="bbCodeBlock bbCodeVfcHH HiddenContent">
<div class="attribution type">Hidden Content:</div>
<blockquote>You must either reply or click 'Like' to see the hidden information contained here.</blockquote>
</div><br>
<br>
Cutted with:<br>
<b>tsMuxeR<br>
<br>
<img src="styles/default/xenforo/smilies/super_man-48.png" class="mceSmilie" alt=":super:" title="Super Man    :super:"><img src="styles/default/xenforo/smilies/super_man-48.png" class="mceSmilie" alt=":super:" title="Super Man    :super:"><img src="styles/default/xenforo/smilies/super_man-48.png" class="mceSmilie" alt=":super:" title="Super Man    :super:"></b>
<div class="messageTextEndMarker">&nbsp;</div>
</blockquote>
</article>]]></description>
                <author><![CDATA[Dream66]]></author>
                </item>

                </channel></rss>